<?xml version="1.0" standalone="no"?>
<!DOCTYPE svg PUBLIC "-//W3C//DTD SVG 20010904//EN"
 "http://www.w3.org/TR/2001/REC-SVG-20010904/DTD/svg10.dtd">
<svg version="1.0" xmlns="http://www.w3.org/2000/svg"
 width="504.000000pt" height="504.000000pt" viewBox="0 0 504.000000 504.000000"
 preserveAspectRatio="xMidYMid meet">
<metadata>
Created by potrace 1.11, written by Peter Selinger 2001-2013
</metadata>
<g transform="translate(0.000000,504.000000) scale(0.100000,-0.100000)"
fill="#000000" stroke="none">
<path d="M2511 3984 c0 -11 3 -14 6 -6 3 7 2 16 -1 19 -3 4 -6 -2 -5 -13z"/>
<path d="M2511 3378 c-2 -42 -38 -184 -55 -220 -9 -17 -16 -37 -16 -45 0 -7
-4 -13 -10 -13 -5 0 -10 -6 -10 -13 0 -8 -18 -38 -39 -69 -38 -53 -147 -137
-216 -167 -39 -17 -187 -41 -213 -34 -11 2 -22 0 -26 -5 -3 -5 34 -14 88 -20
87 -10 245 -61 246 -80 1 -4 23 -23 50 -42 28 -19 50 -40 50 -47 0 -6 4 -13 8
-15 22 -9 72 -102 96 -178 43 -133 46 -145 46 -166 0 -43 17 -43 18 0 2 52 33
158 69 238 22 49 29 56 41 45 13 -10 14 -8 8 10 -7 22 -3 29 62 96 36 37 117
90 168 110 22 8 77 21 122 27 45 7 82 16 82 20 0 4 -27 10 -61 13 -90 10 -197
52 -267 105 -60 45 -152 158 -152 185 0 7 -4 17 -9 22 -10 11 -53 153 -69 225
-7 32 -10 37 -11 18z"/>
<path d="M2246 3301 c-4 -7 -5 -15 -2 -18 9 -9 19 4 14 18 -4 11 -6 11 -12 0z"/>
<path d="M2880 3170 c0 -5 5 -10 11 -10 5 0 7 5 4 10 -3 6 -8 10 -11 10 -2 0
-4 -4 -4 -10z"/>
<path d="M2965 3090 c3 -5 11 -10 16 -10 6 0 7 5 4 10 -3 6 -11 10 -16 10 -6
0 -7 -4 -4 -10z"/>
<path d="M2751 3004 c0 -11 3 -14 6 -6 3 7 2 16 -1 19 -3 4 -6 -2 -5 -13z"/>
<path d="M3210 2930 c0 -5 5 -10 11 -10 5 0 7 5 4 10 -3 6 -8 10 -11 10 -2 0
-4 -4 -4 -10z"/>
<path d="M1985 2590 c3 -5 8 -10 11 -10 2 0 4 5 4 10 0 6 -5 10 -11 10 -5 0
-7 -4 -4 -10z"/>
<path d="M2298 2373 c12 -2 32 -2 45 0 12 2 2 4 -23 4 -25 0 -35 -2 -22 -4z"/>
<path d="M2760 2364 c0 -8 5 -12 10 -9 6 4 8 11 5 16 -9 14 -15 11 -15 -7z"/>
<path d="M2790 2361 c0 -5 5 -13 10 -16 6 -3 10 -2 10 4 0 5 -4 13 -10 16 -5
3 -10 2 -10 -4z"/>
<path d="M1345 2343 c-85 -11 -187 -91 -225 -176 -30 -65 -28 -193 4 -255 68
-133 209 -191 364 -152 27 7 67 28 88 46 l39 32 -50 51 c-27 28 -55 51 -60 51
-6 0 -28 -9 -50 -20 -47 -24 -62 -25 -106 -6 -100 42 -124 159 -49 231 28 27
38 30 95 30 48 0 68 -4 84 -19 l22 -20 56 57 c55 55 56 57 39 76 -43 47 -170
85 -251 74z"/>
<path d="M3710 2341 c-19 -4 -57 -17 -84 -29 -202 -91 -225 -385 -40 -513 43
-29 147 -58 194 -54 237 21 358 281 222 476 -62 88 -191 140 -292 120z m114
-174 c89 -45 100 -169 19 -229 -29 -22 -47 -28 -88 -28 -44 0 -56 5 -87 33
-42 39 -53 70 -44 131 13 87 117 136 200 93z"/>
<path d="M2220 2334 c0 -3 7 -12 15 -20 16 -17 18 -14 9 10 -6 15 -24 23 -24
10z"/>
<path d="M2267 2325 c-1 -5 -1 -135 1 -287 l4 -278 79 0 c67 0 81 3 86 18 4 9
17 27 29 38 13 12 21 24 19 26 -2 2 21 36 51 76 30 40 54 77 54 81 0 5 7 14
15 21 12 10 15 -5 17 -122 l3 -133 75 0 75 0 3 283 2 282 -78 0 c-91 0 -83 6
-175 -133 -32 -47 -66 -94 -75 -104 -9 -9 -16 -19 -15 -22 1 -3 -1 -8 -3 -10
-3 -3 -4 53 -3 123 0 71 -3 132 -8 136 -12 13 -152 17 -156 5z"/>
<path d="M1826 2318 c-49 -9 -106 -41 -106 -59 0 -5 -8 -19 -19 -30 -52 -56
-37 -181 30 -247 l37 -37 -26 -50 c-15 -27 -29 -52 -32 -55 -21 -20 -41 -63
-33 -71 6 -6 48 -9 94 -7 78 3 85 5 97 28 45 86 70 124 86 126 15 2 17 -6 15
-74 l-2 -77 82 -3 82 -3 -3 283 -3 283 -125 1 c-69 0 -147 -4 -174 -8z m144
-193 l0 -45 -56 0 c-42 0 -60 4 -70 18 -32 42 -3 72 72 72 l54 0 0 -45z"/>
<path d="M2920 2045 l0 -287 173 4 c170 3 175 4 213 30 22 15 48 42 58 60 24
40 26 131 3 173 -9 19 -12 36 -7 46 15 26 18 92 6 131 -13 44 -57 95 -94 109
-15 6 -100 13 -189 16 l-163 5 0 -287z m285 100 c0 -18 -7 -20 -64 -20 -59 0
-64 2 -68 23 -3 22 -1 23 64 20 60 -3 68 -5 68 -23z m13 -184 c1 -1 2 -10 2
-21 0 -18 -7 -20 -76 -20 -65 0 -75 2 -70 16 3 9 6 20 6 26 0 8 108 7 138 -1z"/>
<path d="M2551 2294 c0 -11 3 -14 6 -6 3 7 2 16 -1 19 -3 4 -6 -2 -5 -13z"/>
<path d="M2451 2254 c0 -11 3 -14 6 -6 3 7 2 16 -1 19 -3 4 -6 -2 -5 -13z"/>
<path d="M2470 2179 c0 -5 5 -7 10 -4 6 3 10 8 10 11 0 2 -4 4 -10 4 -5 0 -10
-5 -10 -11z"/>
<path d="M1547 1533 c-13 -12 -7 -44 9 -50 11 -4 12 -8 4 -13 -7 -4 -13 -40
-15 -88 -3 -74 -2 -82 17 -88 11 -3 25 -1 30 4 10 10 14 159 5 169 -3 3 -1 13
5 23 16 25 3 50 -25 50 -13 0 -27 -3 -30 -7z"/>
<path d="M1856 1525 c-3 -8 -3 -22 0 -30 4 -8 7 -57 8 -107 1 -92 1 -93 26
-93 l25 0 2 123 2 122 -28 0 c-16 0 -31 -7 -35 -15z"/>
<path d="M1149 1471 c-4 -42 -5 -159 -2 -168 8 -21 44 -15 50 7 6 23 19 26 26
6 7 -17 67 -30 80 -17 7 7 -1 23 -22 46 l-32 36 31 40 c17 21 28 44 25 50 -10
15 -55 2 -82 -23 -21 -20 -22 -20 -17 0 5 16 0 20 -25 24 -17 2 -31 2 -32 -1z"/>
<path d="M1412 1471 c-29 -8 -99 -160 -79 -173 29 -18 48 -7 69 40 20 45 21
46 28 21 14 -48 30 -69 55 -69 37 0 38 14 5 83 -16 35 -30 69 -30 74 0 18 -24
30 -48 24z"/>
<path d="M1654 1465 c-3 -6 -4 -47 -2 -91 3 -77 4 -79 28 -79 21 0 26 5 28 33
2 24 8 32 23 32 14 0 19 -7 19 -30 0 -23 5 -31 25 -36 14 -4 28 -4 31 -1 3 3
6 42 6 87 1 66 -2 84 -14 91 -26 15 -48 0 -48 -33 0 -40 -33 -35 -40 6 -4 22
-11 30 -28 31 -13 1 -26 -4 -28 -10z"/>
<path d="M1968 1468 c-2 -7 -4 -49 -3 -93 1 -78 2 -80 26 -80 20 0 25 6 27 33
3 28 7 33 25 30 15 -2 23 -11 25 -28 5 -34 16 -43 41 -35 19 6 21 14 21 85 0
69 -3 81 -20 90 -26 14 -40 5 -40 -25 0 -13 -4 -26 -9 -29 -18 -11 -41 6 -41
30 0 13 -4 24 -9 24 -5 0 -16 3 -24 6 -8 3 -16 -1 -19 -8z"/>
<path d="M2173 1464 c-2 -6 -3 -46 -1 -90 3 -77 4 -79 28 -79 23 0 25 4 28 58
3 58 8 63 50 58 24 -4 41 19 33 41 -7 18 -16 21 -71 22 -37 1 -64 -3 -67 -10z"/>
<path d="M2385 1468 c-41 -24 -56 -51 -51 -92 6 -51 33 -77 87 -83 37 -4 48
-1 72 21 37 34 39 102 3 135 -28 26 -83 36 -111 19z m65 -63 c16 -19 3 -55
-20 -55 -29 0 -42 31 -23 52 20 22 27 22 43 3z"/>
<path d="M2564 1465 c-3 -6 -4 -47 -2 -91 l3 -79 40 -1 c51 -2 93 13 100 35 8
28 -3 113 -17 127 -18 17 -118 25 -124 9z"/>
<path d="M2772 1455 c-27 -23 -32 -33 -32 -71 0 -36 5 -50 26 -69 28 -26 51
-29 117 -19 l37 7 0 83 c0 80 -1 84 -22 84 -13 0 -39 3 -59 6 -29 5 -41 1 -67
-21z m81 -53 c14 -15 15 -21 4 -36 -16 -22 -50 -17 -55 7 -4 18 14 47 28 47 4
0 14 -8 23 -18z"/>
<path d="M2450 1201 c-5 -11 -8 -35 -6 -53 3 -18 5 -68 5 -110 1 -77 1 -78 27
-78 l25 0 -1 93 c-1 50 1 100 5 110 5 11 1 25 -10 37 -23 25 -32 25 -45 1z"/>
<path d="M2048 1131 c-53 -26 -65 -105 -23 -147 22 -22 32 -25 93 -22 l67 3 0
85 0 85 -53 5 c-36 4 -64 1 -84 -9z m78 -73 c4 -15 1 -25 -12 -35 -16 -11 -21
-11 -37 6 -25 24 -16 51 17 51 17 0 27 -7 32 -22z"/>
<path d="M1150 1136 c-3 -2 -4 -43 -2 -91 l4 -86 26 3 c21 2 26 8 24 23 -4 19
-3 19 20 -2 26 -25 88 -32 88 -11 0 7 -14 26 -30 43 l-31 32 31 38 c16 21 30
42 30 46 0 5 -16 9 -35 9 -19 0 -35 -3 -35 -8 0 -4 -8 -12 -19 -19 -15 -10
-18 -9 -17 5 1 11 -8 18 -24 20 -14 2 -28 1 -30 -2z"/>
<path d="M1369 1127 c-45 -34 -50 -92 -13 -136 22 -26 33 -31 70 -31 62 0 94
32 94 93 0 34 -5 48 -25 65 -28 25 -99 30 -126 9z m86 -77 c0 -20 -6 -26 -26
-28 -28 -3 -43 16 -32 44 3 9 15 14 32 12 20 -2 26 -8 26 -28z"/>
<path d="M1560 1056 c0 -89 6 -102 44 -92 18 4 22 11 19 28 -4 21 -1 23 36 23
38 0 41 -2 38 -25 -2 -21 3 -26 26 -28 15 -2 27 1 28 7 0 6 0 46 0 89 l1 77
-33 0 c-26 0 -36 -6 -44 -22 -13 -29 -19 -29 -33 2 -9 20 -19 25 -47 25 l-35
0 0 -84z"/>
<path d="M1802 1053 c3 -86 3 -88 28 -88 23 0 25 4 28 58 3 48 6 57 22 57 20
0 34 -42 28 -90 -2 -21 1 -25 22 -25 25 0 25 2 28 88 l3 87 -81 0 -81 0 3 -87z"/>
<path d="M2240 1138 c-1 -2 -2 -41 -3 -88 l-2 -85 28 -3 c15 -2 28 1 28 7 1 6
3 16 4 21 1 6 3 15 4 20 0 6 10 10 20 10 14 0 21 -8 23 -27 2 -22 8 -28 28
-28 25 0 25 1 25 85 l0 85 -27 3 c-25 3 -28 0 -28 -27 0 -24 -4 -31 -20 -31
-11 0 -21 7 -21 15 -1 8 -2 21 -3 28 -1 10 -55 25 -56 15z"/>
<path d="M2562 1124 c-25 -17 -30 -62 -10 -94 10 -15 10 -22 0 -32 -28 -28
-13 -37 56 -35 l67 2 3 88 3 87 -48 0 c-28 0 -58 -7 -71 -16z m65 -50 c-3 -3
-12 -4 -19 -1 -8 3 -5 6 6 6 11 1 17 -2 13 -5z m3 -84 c0 -5 -5 -10 -11 -10
-5 0 -7 5 -4 10 3 6 8 10 11 10 2 0 4 -4 4 -10z"/>
<path d="M40 20 c0 -20 7 -20 2485 -20 2478 0 2485 0 2485 20 0 20 -7 20
-2485 20 -2478 0 -2485 0 -2485 -20z"/>
</g>
</svg>
